<?xml version="1.0" encoding="UTF-8"?>
<svg id="_图层_2" data-name="图层 2" xmlns="http://www.w3.org/2000/svg" xmlns:xlink="http://www.w3.org/1999/xlink" viewBox="0 0 1723.21 326.12">
  <defs>
    <style>
      .cls-1 {
        fill: url(#mix);
        stroke: #6b6b6b;
      }

      .cls-1, .cls-2, .cls-3 {
        stroke-miterlimit: 10;
      }

      .cls-2 {
        fill: #2291fd;
        stroke: #2291fd;
        stroke-width: .5px;
      }

      .cls-3 {
        fill: #fff;
        stroke: #fff;
        stroke-width: .75px;
      }
    </style>
    <linearGradient id="mix" data-name="mix" x1=".5" y1="165.31" x2="414.32" y2="165.31" gradientUnits="userSpaceOnUse">
      <stop offset="0" stop-color="#6b6b6b" stop-opacity=".3"/>
      <stop offset=".25" stop-color="#fff"/>
      <stop offset=".75" stop-color="#3b3b3b"/>
      <stop offset="1" stop-color="#fff"/>
    </linearGradient>
  </defs>
  <g id="_图层_1-2" data-name="图层 1">    
    <path class="cls-1" d="M413.66,94.85c-.24-1.33-.54-2.64-.92-3.95-5.81-20.22-27.43-34.58-48.32-32.1s-38.54,21.52-39.44,42.54c-.1,2.41-.12,5.11-1.8,6.84-1.24,1.28-3.1,1.69-4.85,2.05-34.42,6.99-68.84,13.98-103.26,20.97-4.09,.83-8.55,1.62-12.29-.25-5.5-2.76-6.94-10.41-4.74-16.16s7.02-10.02,11.67-14.06c2.68-2.33,5.6-4.76,9.12-5.19,2.61-.31,5.2,.53,7.77,1.08,21.23,4.59,44.27-13.94,44.33-35.66s-22.88-40.38-44.13-35.9-34.71,30.81-25.89,50.66c1.34,3.02,3.15,6.2,2.43,9.43-.46,2.07-1.9,3.76-3.29,5.37-3.56,4.1-7.13,8.21-10.69,12.31-1.22,1.4-2.52,2.86-4.29,3.42-2.93,.93-5.94-.89-8.62-2.4-16.25-9.14-37.63-8.29-53.1,2.12-1.9,1.28-4.01,2.77-6.27,2.38-1.63-.28-2.93-1.47-4.12-2.61-8.25-7.89-16.5-15.79-24.75-23.68-1.86-1.78-3.83-3.75-4.24-6.29-.43-2.62,.89-5.17,1.96-7.6,8.47-19.28,1.02-44.18-16.65-55.64C51.58,1.06,25.81,4.42,11.67,20.03c-14.14,15.6-14.96,41.58-1.83,58.05s38.64,21.44,57,11.12c1.82-1.02,3.76-2.21,5.83-1.91,1.77,.26,3.17,1.57,4.45,2.82,8.21,7.99,16.42,15.97,24.63,23.96,1.38,1.34,3.68,2.74,3.31,4.62-.59,2.98-2.77,6.47-4.71,12.09-2.85,8.25-2.71,9.26-2.94,18.86-.04,1.69-.98,3.36-2.26,4.46-1.29,1.1-3.08,1.36-4.76,1.56-6.06,.74-12.12,1.49-18.18,2.23-2.24,.28-4.61,.53-6.68-.36-2.59-1.12-4.11-3.75-5.82-6-9.78-12.92-31.3-14.48-42.84-3.11-11.54,11.37-10.3,32.91,2.46,42.88,12.77,9.97,33.97,5.95,42.2-8,1.95-3.3,3.34-7.12,6.36-9.47,2.89-2.24,6.74-2.71,10.38-3.1,5.37-.57,10.75-1.14,16.12-1.72,1.83-.19,3.76-.37,5.42,.4,2.47,1.14,3.59,3.94,4.73,6.41,3.9,8.47,10.52,15.65,18.64,20.23,2.16,1.22,4.65,2.51,5.35,4.9,.46,1.58,0,3.27-.46,4.85-2.19,7.53-4.38,15.06-6.57,22.58-.51,1.75-1.07,3.59-2.35,4.89-1.9,1.92-4.84,2.19-7.49,2.72-11.77,2.38-21.41,12.92-22.74,24.86-3.2,28.66,35.7,43.37,52.4,20.01,7.74-10.83,6.51-27.14-2.77-36.68-1.84-1.89-4.04-3.69-4.68-6.24-.53-2.1,.1-4.3,.74-6.37,2.06-6.76,4.12-13.53,6.18-20.29,.49-1.61,1.03-3.31,2.27-4.46,1.42-1.31,3.46-1.65,5.37-1.92,6.21-.89,12.42-1.78,18.63-2.68,2.71-.39,5.67-.74,8.03,.65,1.68,.98,2.78,2.68,3.82,4.32,12.99,20.43,25.98,40.86,38.96,61.29,1.34,2.1,2.72,4.34,2.81,6.83,.12,3.01-1.65,5.72-2.94,8.44-7.05,14.85,1.67,34.95,17.33,39.95s34.41-6.33,37.27-22.51-10.88-33.26-27.3-33.93c-3.73-.15-7.75,.35-10.91-1.64-1.95-1.22-3.25-3.22-4.49-5.15-11.54-17.98-23.07-35.95-34.61-53.93-3.85-6-7.85-13.18-5.38-19.86,2.23-6,9.19-9.15,15.59-8.94s12.38,3.03,18.15,5.8c2.78,1.34,5.72,2.81,7.33,5.45,1.42,2.33,1.56,5.18,1.98,7.87,3.21,20.57,27.79,34.75,47.21,27.22,19.41-7.53,28-34.58,16.49-51.93-11.51-17.35-39.77-19.96-54.26-5.01-1.92,1.98-3.84,4.33-6.56,4.82-1.85,.33-3.72-.28-5.5-.88-3.51-1.19-7.01-2.37-10.52-3.56-4.46-1.51-9.14-3.16-12.22-6.71s-3.75-9.66-.13-12.66c1.67-1.38,3.88-1.86,6-2.3,36.1-7.46,72.2-14.91,108.29-22.37,2.05-.42,4.23-.84,6.18-.08,2.32,.9,3.71,3.2,5.12,5.25,11.92,17.33,36.98,24.1,56,15.12,17.8-8.4,28.31-29.64,24.84-48.9Z"/>
    
    <path class="cls-3" d="M749.69,257.45c-3.72,1.45-6.85,3.9-9.88,6.44-1.3,1.09-1.23,5.32-4.23,1.91-1.9-2.17-4.46-4.58-.74-7.74,6.84-5.81,14.73-9.4,23.31-11.58,9.38-2.38,18.77-3.65,27.21,2.87,9.98,7.71,10.64,14.97,2.02,24.91-11.29,13.01-24.16,24.38-37.41,35.33-1.41,1.17-2.95,2.6-4.73,.89-1.62-1.55-3.49-2.94-3.14-5.84,1.83-15.52,6.15-30.58,8.28-46.03,.04-.27-.34-.59-.69-1.14Zm-.27,42.38c12.8-10.11,24.03-19.86,33.21-31.76,2.88-3.73,6.92-7.87,4.19-12.67-2.53-4.44-8.1-4.23-12.88-4.25-14.71-.07-15.17,.34-17.92,14.73-2.08,10.84-4.21,21.67-6.59,33.96Z"/>
    <path class="cls-3" d="M1130.76,253.41c11.17-6.19,22.85-10.08,35.86-7.85,6.88,1.18,11.63,5.3,15.33,11,1.87,2.88,2.08,5.66,.62,8.71-3.78,7.9-9.35,14.28-15.83,20.17-3.98,3.62-8.82,6.5-11.55,11.41-4.98,4.23-9.95,8.48-14.94,12.7-1.61,1.36-3.55,2.71-5.21,.58-1.3-1.66-3.69-2.51-2.38-6.25,1.49-4.28,.75-9.35,1.9-14.06,1.74-7.08,2.84-14.31,4.21-21.48,.83-3.57,1.97-7.11,1.53-10.95-2.64,.2-3.73,2.18-5.5,2.97-1.69,1.3-3.52,2.46-5.03,3.94-1.12,1.11-1.06,4.78-3.72,1.81-1.67-1.87-4.94-3.99-1.81-7.15,2-2.02,4.34-3.71,6.52-5.54Zm8.94,46.14c7.84-5.54,14.46-11.56,20.77-17.89,5.28-5.29,10.69-10.48,14.76-16.87,4.85-7.6,3.05-11.98-5.88-13.32-5.1-.76-10.16-.16-15.29,.56-4.33,.61-6.01,2.76-6.71,6.57-2.48,13.39-5,26.78-7.66,40.94Z"/>
    <path class="cls-3" d="M1491.23,292.02c-1.33,1.85-2.73,3.66-3.97,5.57-1.39,2.15-2.53,4.87-5.67,4.23-3.32-.68-5.19-3.15-5.94-6.44-1.8-7.86,11.49-22.58,18.58-19.19,2.55,1.21,4.93,2.35,4.74,5.2-.91,13.4-.86,27.01-6.81,39.53-2.82,5.93-13.56,6.48-17.52,1.02-.47-.65-.77-1.21-.13-1.89,.66-.7,1.31-.18,2-.01,8.44,2.08,9.22,1.61,12.12-6.62,2.39-6.76,2.97-13.8,2.61-21.39Zm-2.78-7.85c-4.07,1.89-5.34,5.74-6.14,9.94,2.14-3.19,4.29-6.38,6.42-9.58,.2-.27,.42-.53,.58-.83,.03-.05-.22-.25-.35-.38-.17,.28-.34,.57-.52,.85Z"/>
    <path class="cls-2" d="M628.46,58.77l-47.92,43.98-71.66-70.03V2.02c2.62,.67,71.74,68.8,71.74,68.8L651.67,1.13V142.65h-23.14s-.07-83.88-.07-83.88Zm4.21-11.01l.19,91.06h14.88l-.53-126.55-66.68,63.22-67.12-63.33-.09,20.3,67.21,65.32,52.14-50.02Z"/>

    <path class="cls-3" d="M716.96,268.93c1.77-3.85,2.6-7,1.73-10.35-.42-1.63-.33-2.96,1.72-3.23,1.94-.26,2.67,.97,2.85,2.56,.23,2.09,.26,4.2,.4,6.6,2.58-1.41,1.64-3.19,1.43-4.8-.17-1.3,.43-2.09,1.69-2.37,1.01-.23,1.66,.2,2.23,1.09,1.76,2.74,.54,8.25-2.29,9.83-.46,.26-1.38,.64-1.45,.53-2.42-3.62-5.03-.04-8.31,.14Z"/>
    <path class="cls-3" d="M990.32,269.99c-2.43-.68-4.56-1.29-3.93-4.35,.81-3.98,2.8-7.47,4.74-10.96,.69-1.25,1.94-1.68,3.3-1.07,1.01,.45,2.12,1.2,1.75,2.44-1.31,4.34-2.74,8.64-4.26,12.92-.18,.5-1.12,.73-1.6,1.02Z"/>
    <path class="cls-3" d="M1454.61,285.06c2.57-4.57,4.23-8.87,9.84-7.21,5.09,1.51,7.43,5.15,7.25,11.44-.08,2.74-.37,5.47-.44,8.21-.06,2.1,.08,4.36-2.95,4.06-2.54-.25-4.01-1.87-3.73-4.49,.49-4.53,1.07-9.04,.25-15.34-4.8,6.36-7.81,12.03-9.13,18.56-.36,1.77,.09,4.01-2.64,3.87-2.58-.13-4.6-1.19-4.66-4.27-.12-6.53-.31-13.06-.39-19.59-.03-2.4,1.34-2.62,3.31-1.94,2.76,.96,3.28,3.17,3.3,6.7Z"/>
    <path class="cls-2" d="M671.71,142.32V1.47l23.22,21.92-.18,95.07-23.04,23.85Zm4-10.14l14.82-15.44,.19-91.17-15.01-14.04v120.66Z"/>
    <path class="cls-2" d="M834.5,142.59l-118.58-104.9V.85c16.51,14.8,93.61,83.96,93.61,83.96l.35-84.24,24.61,.03V142.59ZM721.26,12.18l-.13,23.32c34.04,30.34,107.48,94.57,107.48,94.57l.6-124.79h-14.36l-.28,89.29c-31.02-27.87-93.31-82.4-93.31-82.4Z"/>
    
    <path class="cls-3" d="M1430.1,294.98c.32-6,.7-12.37,.98-18.75,.06-1.49,.44-2.66,2.07-2.52,1.53,.13,3.31-.09,4.12,1.98,.84,2.17,.72,4.32,.36,6.48-1.02,5.99-1.02,12.01-.49,18.03,.19,2.16,.56,4.31-2.48,4.18-2.41-.11-4.84-.68-4.58-4.09,.13-1.64,.02-3.29,.02-5.31Z"/>
    <path class="cls-3" d="M1060.39,283.09c-3.94,5.35-7.14,10.92-8.2,17.53-.29,1.83-.36,3.91-3.03,3.56-2.06-.28-4.26-1.14-4.33-3.48-.22-6.94-.13-13.9-.11-20.85,0-2.33,1.45-2.05,3.02-1.52,2.33,.78,3.23,2.64,3.23,6.32,3.12-4.73,5.09-8.68,10.52-6.57,5.37,2.08,6.91,6.04,6.65,11.28-.14,2.74-.17,5.49-.16,8.23,0,2-.33,3.93-2.71,3.96-2.46,.03-4.21-1.23-4.07-4.05,.15-3.1,.27-6.21,.54-9.31,.15-1.78,.83-3.6-1.36-5.1Z"/>
    <path class="cls-3" d="M1010.14,296.43c3.42,.22,5.75,.35,8.07,.54,1.02,.08,2.47-.18,2.52,1.31,.04,1.16-.99,2.14-2.14,2.11-5.25-.12-9.45,3.45-14.56,3.89-2.85,.25-5.44,.87-6.79-2.67-1.26-3.31,.92-4.63,3.06-6.11,3.76-2.6,7.53-5.2,11.27-7.84,1.9-1.34,3.73-2.77,4.78-5.2-4.13-1.21-7.4,.7-10.82,1.67-2.67,.76-5.62,1.92-6.57-2.1-.9-3.84,2.49-3.31,4.55-3.82,3.18-.79,6.23-2.08,9.59-2.17,2.92-.08,5.63,.24,7,3.17,1.47,3.13,1.69,6.29-.69,9.24-2.41,2.98-5.68,5-9.27,7.98Z"/>
    <path class="cls-2" d="M914.83,60c11.28,.41,22.85-1.15,33.56,3.45,18.5,7.95,27.54,24.47,25.62,42.29-2.12,19.62-17.89,34.99-35.86,36.64q-5.34,.08-5.46-5.08l-.21-9.55q-.03-8.4,8.28-10.75c7.99-2.25,11.21-11.08,9.44-19.43-1.55-7.32-8.71-13.49-16.57-13.66-11.36-.25-22.73,0-34.09-.16-20.57-.28-37.03-11.92-42.2-29.66-7.26-24.94,9.2-49.93,34.91-53.17,3.35-.42,4.85-.04,4.84,4.03l-.02,7.13q.14,12.34-8.34,14.75c-7.65,2.17-10.71,10.53-9.19,18.97,1.32,7.34,7.78,13.56,15.51,14.09,6.56,.45,13.18,.09,19.78,.09Zm-1.18,19.73c7.15,0,14.32-.37,21.44,.09,9.32,.6,17.63,8.52,19.28,17.6,1.8,9.9-2.37,19.41-11.43,23.25-5.15,2.18-6.08,2.38-6.07,10.15v3.29q.04,4.07,4.92,3.66c12.53-3.42,21.49-11.18,26.02-23.19,9.21-24.46-8.28-49.43-35-50.21-12.28-.36-24.58,.11-36.86-.22-9.85-.27-18.55-7.85-20.4-17.04-2.02-10.02,2.13-20.65,10.97-24.04,6.01-2.31,6.81-5.67,6.53-11.07-.38-7.35-.56-7.72-7.38-5.58-16.32,5.12-27.01,21.32-25.79,39.06,1.15,16.66,14.49,30.96,31.26,33.48,7.48,1.12,15.02,.14,22.52,.77Z"/>   
    

    <path class="cls-3" d="M887.7,298.38c6.54-1.06,11.02-5.8,17.12-6.72-1,5.26-8.68,12.63-13.28,12.99-5.13,.4-10.25-7.86-8.09-13.6,2.54-6.75,8.87-10.45,13.66-15.3,2.04-2.06,3.66,1.2,4.87,2.87,1.2,1.67,2.01,3.54,.79,5.59-.14,.23-.79,.44-.91,.34-2.99-2.66-5.4-1.11-7.4,1.22-3.02,3.52-6.69,6.77-6.75,12.61Z"/>

    <path class="cls-3" d="M909.1,276.77c4.16,.54,5.79,2.63,6.36,6.11,2.55-2.4,3.7-5.82,6.75-7.31,2.7-1.32,5.51-2.32,8,.51,1.43,1.62,2.13,2.86-.77,3.89-7.27,2.57-13.8,12.26-14.13,20.27-.07,1.56,1.51,4.39-1.22,4.47-2.51,.07-4.69-1.89-5.07-4.87-.07-.53,.08-1.09,.08-1.64,0-7.07,0-14.15,0-21.43Z"/>
    <path class="cls-3" d="M1027.32,284.51c.16-3.42,.45-5.25,.27-7.03-.2-1.97-.52-3.85,2.24-3.79,2.07,.04,4.14,.54,4.14,3.27,0,3.09,.08,6.19-.24,9.25-.49,4.69-.62,9.33,.07,14.02,.25,1.71,.7,4-2.08,4.1-2.37,.09-4.57-.14-5.04-3.51-.84-6.05,.87-11.93,.62-16.3Z"/>
    <path class="cls-2" d="M1027.71,39.3c12.09-12.2,24.17-24.41,36.26-36.61,1.27-1.28,2.42-2.47,4.59-2.44,9.33,.12,18.67,.07,28.1,.06,1.25,0,1.94,1.49,1.1,2.42-.58,.65-1.31,1.12-1.88,1.68-21.1,21.12-42.18,42.26-63.43,63.22-2.84,2.81-3.1,4.23-.1,7.19,18.04,17.73,54.37,55.28,63.98,65.24,.89,.92,.23,2.46-1.05,2.46h-24.06c-3.16,.17-5.41-1.3-7.62-3.51-13.3-13.33-26.68-26.58-40.11-39.78-6.79-6.67-17.97-17.52-25.02-23.91-2.99-2.71-3.28-4.23-.21-7.26,9.78-9.61,20.36-18.41,29.42-28.76Zm59.97-32.01c.88-.94,.2-2.47-1.09-2.46-4.29,.06-7.79,.17-11.26-.1-4.55-.34-7.78,1.11-11.05,4.42-19.54,19.82-39.28,39.45-59.12,58.98-2.97,2.92-3.33,4.52-.12,7.64,18.69,18.17,58.77,56.34,63.3,60.66,.27,.26,.63,.4,1,.4h13.52s5.19,0,2.14-3.52c0,0-42.67-42.59-58.41-58.11-2.72-2.69-2.76-4.11,0-6.84,19.55-19.3,38.91-38.78,58.33-58.21,.85-.85,1.68-1.73,2.74-2.87Z"/>
    <path class="cls-2" d="M1605.75,.72c25.67,0,51.36-.56,77.01,.2,16.65,.49,29.37,8.91,36.23,24.44,6.81,15.42,4.74,30.06-5.98,43.18-1.96,2.4-2.33,3.58-.13,6.24,10.8,13.03,12.97,27.8,6.24,43.17-6.65,15.18-18.85,23.82-35.54,24.45-17.22,.65-34.47,.21-51.71,.36-3.12,.03-4.24-1.16-4.13-4.22,.16-4.76,.25-9.54-.03-14.28-.23-3.78,.96-5,4.88-4.95,16.32,.21,32.64,.19,48.97,.03,8.77-.09,16.04-6.57,17.23-14.83,1.3-8.98-3.59-17.08-11.93-19.9-2.86-.97-5.79-.79-8.71-.79-22.74-.03-45.48-.13-68.22,.08-4.39,.04-6.36-.82-5.89-5.63,.43-4.35,.33-8.8,.02-13.17-.28-3.86,1.06-4.95,4.91-4.92,22.19,.17,44.38,.08,66.57,.08,2.02,0,4.04,.04,6.05-.1,10.51-.75,17.69-8.57,17.37-18.85-.3-9.72-7.57-16.69-18.04-16.8-16.14-.16-32.28-.14-48.42,.01-3.4,.03-5.79-.99-8.17-3.4-6.41-6.47-13.11-12.65-19.7-18.95,.37-.48,.74-.95,1.11-1.43Zm9.78,4.24c2.36,4.4,6.36,6.77,9.08,10.22,2.97,3.76,6.61,5.01,11.45,4.91,14.85-.3,29.72-.19,44.58-.08,9.79,.07,17.83,5.5,21.14,13.91,5.73,14.58-4.74,30.16-20.81,30.36-21.09,.27-42.19,.08-63.29,.08-9.38,0-9.04,.02-9.47,9.17-.24,5.11,1.62,6.01,6.23,5.96,22.01-.24,44.03-.22,66.04-.11,13.25,.06,22.76,9.62,22.71,22.43-.05,12.54-9.59,21.71-22.71,21.75-13.02,.03-26.05,0-39.07,0-9.67,0-9.41,0-9.66,9.55-.13,4.78,1.67,5.8,6.05,5.72,14.49-.25,28.99,.06,43.47-.18,16.33-.28,27.96-8.22,34.26-23.12,6.16-14.57,3.46-28.12-7.42-39.55-3.33-3.5-3.19-5.08,.07-8.47,10.63-11.08,13.34-24.38,7.79-38.59-5.61-14.37-16.8-23.13-32.19-23.74-22.52-.9-45.1-.23-68.25-.23Z"/>
    
    
    <path class="cls-3" d="M966.65,297.6c1.88-2.16,3.68-4.41,5.68-6.45,.79-.81,1.62-2.42,3.04-1.65,1.16,.63,1.49,2.43,1.04,3.43-1.93,4.3-4.2,8.57-8.34,11.12-2.98,1.84-7.81-2.61-7.82-7.46,0-3.05,.87-6.11,1.51-9.14,.56-2.69,1.52-5.28-2.15-6.72-.99-.39-2.26-1.54-1.69-3.06,.47-1.26,1.87-1.15,2.86-1.1,3.2,.14,4.44-1.41,5.02-4.43,.54-2.83,1.75-5.55,2.83-8.25,.59-1.47,.34-4.25,3.18-3.25,2.31,.82,3.44,2.86,2.66,5.3-.83,2.59-2.03,5.06-3.33,8.19,5.54-.46,10.6-1.69,15.84-1.07,5.26,.62,6.89,3.22,6.18,8.06-.98,6.7-1.69,13.42-.36,20.17,.43,2.21-.93,3.16-2.79,3.07-2.45-.11-4.61-.66-4.69-4.02-.14-5.69,.31-11.34,1.1-16.94,.7-5.01-.75-5.55-5.76-5.25-9.96,.6-14.14,5.43-14.33,14.84-.03,1.41-.51,2.82-.78,4.23,.37,.13,.73,.26,1.1,.39Z"/>
    <path class="cls-3" d="M1415.21,282.77c-3.89,5.58-7.37,11.04-8.25,17.74-.25,1.89-.45,3.94-2.97,3.66-2.21-.25-4.54-1.16-4.61-3.84-.17-6.75-.09-13.5-.07-20.25,0-2.13,1.26-2.27,2.97-1.76,2.72,.8,3.36,3.07,3.74,6.1,2.59-4.06,4.24-8.33,9.85-6.46,5.75,1.92,7.18,6.18,6.91,11.57-.12,2.55-.23,5.1-.23,7.66,0,2.11,.05,4.37-2.78,4.35-2.89-.01-4.2-1.86-3.97-4.73,.27-3.45,.58-6.9,.87-10.35,.09-1.1,.13-2.18-1.45-3.69Z"/>

    <path class="cls-3" d="M1037.26,256.33c-1.29,4.01-2.54,8.18-4.01,12.28-.51,1.44-1.9,1.56-3.23,.94-1.5-.7-3.26-1.37-2.69-3.5,1.08-4.04,2.73-7.88,5-11.41,.74-1.15,1.98-1.7,3.33-1.09,1.03,.47,1.71,1.36,1.6,2.77Z"/>
    <path class="cls-2" d="M1121.68,1.4c-.26-.26-.07-.71,.3-.71,9.98,0,18.68,.11,27.37-.07,2.77-.06,3.82,1.69,5.15,3.39,11.49,14.73,23.09,29.39,34.41,44.25,2.85,3.74,4.28,4.02,7.31,.02,11.06-14.6,22.66-28.79,33.73-43.38,2.55-3.36,5.17-4.31,9.18-4.3l21.35,.08c.49,0,.77,.57,.46,.95-7.69,9.67-72.34,91.16-101.74,133.14-5.54,7.91-6.57,8.15-16.85,7.99-8.35-.06-13.66-.12-16.82-.16-1.63-.02-2.54-1.9-1.53-3.19,5.53-7.1,19.08-24.45,25.79-32.85,8.6-10.77,17.24-21.5,25.97-32.16,1.8-2.2,1.28-3.71-.3-5.7,0,0-47.02-60.28-53.77-67.3Zm12.62,4.06c-1.43,0-2.28,1.59-1.48,2.77,6.81,9.97,33.3,42.38,46.31,58.34,3.5,4.3,2.83,6.72-.24,10.53-12.41,15.46-41.08,51.45-47.77,59.85-.57,.71-.05,1.75,.86,1.74h15.57c.64,0,2.84-.59,3.23-1.09,30.55-39.41,94.65-122.14,102.15-131.81,.3-.39,.03-.95-.46-.95-1.37-.02-4.32-.05-10.59-.09-4.7-.03-7.66,1.17-10.55,4.98-11.5,15.18-23.57,29.93-35.03,45.13-3.32,4.4-4.77,3.59-7.63-.21-9.33-12.37-28.63-34.73-37.71-48.15-.47-.69-1.23-1.12-2.07-1.14-2.84-.06-10.4,.12-14.6,.11Z"/>
    
    <path class="cls-3" d="M806.14,276.15c2.48,.23,4.92,1.99,6.23,5.08,1.37,3.24-1.52,4.44-3.29,6.14-2.81,2.69-6.12,4.53-9.68,6.05-1.33,.57-4.21,.11-3.04,3.13,.96,2.48,2.83,3.2,5.3,2.28,2.79-1.03,5.04-2.85,7.22-4.82,1.21-1.09,2.57-2.06,3.99-2.87,.86-.49,2.12-1.29,2.93-.21,.63,.84,.44,2.04-.37,3.02-1.81,2.21-3.42,4.58-5.31,6.71-3.35,3.79-9.14,5-12.86,2.86-3.99-2.3-7.54-10.45-6.47-14.86,1.5-6.16,9.22-12.9,15.34-12.52Z"/>
    <path class="cls-3" d="M1297.43,237.2c4.89,1.84,7.12,4.57,5.58,10.09-4.01,14.43-7.74,28.94-9.73,43.82-.41,3.05-.36,6.17-.76,9.22-.58,4.44,1.45,5.78,5.29,4.34,6.16-2.3,12.16-5,18.29-7.38,1.87-.73,1.14-1.77,.98-3.03-.97-7.36,3.27-14.7,10.12-17.52,3.87-1.59,7.18-.61,9.82,2.59,1.9,2.3,2.16,4.39-.36,6.61-3.6,3.18-7.4,5.93-11.91,7.67-1.14,.44-3.22,.14-2.53,2.58,.58,2.06,1.79,3.25,3.95,2.91,2.59-.4,4.61-2.01,6.76-3.41,3.95-2.57,6.47-7.42,12.36-7.17,1.33,.06,2.63-3.27,4.24-4.72,3.51-3.15,5.9-9.14,12.5-5.06,1.81,1.12,1.27-3.35,3.51-2.03,2.31,1.36,4.01,3.23,3.62,6.23-.86,6.71-1.78,13.41-1.35,20.22,.08,1.31,.34,3.32-1.78,3.38-1.86,.05-2.91-1.39-3.15-3.19-.27-1.96-.38-3.95-.6-6.43-4.17,2.21-4.88,9.39-11.07,7.2-4.99-1.76-7.11-5.98-8.2-11.17-2.6,1.64-4.25,3.6-5.64,5.97-3.57,6.13-13.63,8.2-17.41,1.57-1.2-2.11-2.28-1.51-3.65-.29-2.15,1.9-4.59,3.53-6.52,5.63-4.35,4.75-11.21,6.99-16,4.9-6.77-2.95-9.44-7.45-8.61-15.08,1.79-16.55,5.97-32.63,9.95-48.74,.78-3.16,1.5-6.33,2.3-9.71Zm26.66,49.12c3.29,.26,4.65-2.42,6.66-4.11-3.04,.24-4.52,2.79-6.72,4.25,.06,.08,.11,.15,.17,.23l-.11-.37Zm37.96-3.93c-6.42,2.36-9.31,6.94-12.13,11.52-.8,1.29-2.1,3.26-.25,4.36,1.86,1.1,3.63-.51,4.54-2.06,2.46-4.22,5.7-7.98,7.85-13.81Z"/>
    <path class="cls-3" d="M1217.82,304.04c-4.8,1-6.46-2.34-8.1-6.02-.76-1.7-.49-4.61-2.96-4.72-2.38-.1-3.11,2.72-4.27,4.32-2.37,3.25-4.5,6.34-9.06,6.5-7.53,.28-13.47-5.64-13.32-13.44,.14-6.82,8.47-14.72,15.06-14.36,3.2,.17,5.81,1.6,6.97,4.39,1.23,2.95-.82,4.64-3.14,6.63-3.26,2.8-6.89,4.7-10.63,6.53-1.19,.58-3.28,.15-2,2.58,.96,1.82,1.86,3.93,4.44,2.61,2.05-1.05,4.18-1.9,6-3.49,5.99-5.26,12.93-9.44,17.51-16.29,2-2.99,5.49-3.2,8.84-2.92,3.26,.27,5.29,2.29,6.48,5.11,1.18,2.78-1.51,3.76-2.88,5.28-2.99,3.33-6.9,5.34-10.94,7-1.75,.72-3.24,1.2-2.08,3.28,1.02,1.83,2.72,3.54,4.85,1.82,2.5-2.03,5.7-2.91,7.92-5.41,1.13-1.26,2.92-2.06,4.55-2.71,.89-.36,2.36-.53,3,.54,.75,1.27-.55,1.98-1.34,2.63-2.81,2.35-3.94,6.1-7.03,8.22-2.36,1.62-4.9,2.29-7.87,1.91Zm-29.19-18.08c1.06,.5,1.99,.49,2.63-.67,1.63-.99,3.26-1.99,4.89-2.98-.02-.08-.05-.15-.07-.23,0,.1,0,.21,0,.31-2.55-1.2-3.85,.74-5.34,2.16-.73,.51-1.46,1.02-2.19,1.52l.14,.25c-.02-.12-.04-.24-.06-.37Zm34.9-3.91c-1.78-.54-3.14,.19-4.34,1.43-.78,.89-2.52,1.04-2.17,2.85,1.22-.41,2.38-.83,2.88-2.13,1.23-.77,2.46-1.53,3.69-2.28-.06-.07-.12-.15-.18-.22,.04,.12,.08,.23,.12,.35Z"/>
    <path class="cls-2" d="M1531.72,1.87s31.41,61.65,46.17,90.64c.46,.91-.21,1.98-1.23,1.97l-23.15-.27c-.51,0-.98-.29-1.2-.76-6.02-12.31-13.42-26.8-19.92-39.83-1.37,2.44-2.35,4.05-3.19,5.72-13.06,25.97-27.86,55.75-40.82,81.89-.32,.64-.96,1.04-1.66,1.05l-22.45,.36c-1.43,.02-2.36-1.48-1.73-2.75,23.33-46.54,46.26-92.27,69.19-138.02Zm.07,9.47c-.91,1.67-1.74,3.09-2.47,4.55-13.35,26.64-26.67,53.28-40.02,79.92-5.94,11.85-13.66,26.57-19.78,38.85-.63,1.26,.29,2.74,1.7,2.74h12.44c.72,0,1.37-.4,1.69-1.04,13.66-27.18,29.29-57.31,42.9-84.41,1.17-2.33,2.43-4.63,4.05-7.71,5.94,11.87,20.47,40.5,22.99,45.47,.23,.45,.7,.74,1.21,.74l13.64,.04c1.02,0,1.68-1.06,1.22-1.97-12.55-24.59-39.58-77.18-39.58-77.18Z"/>
    <path class="cls-2" d="M1342.37,103.5c-.21-15.81-.94-71.41-.94-99.12,0-.91,.74-1.64,1.65-1.64h19.99c.91,0,1.65,.73,1.65,1.64-.08,25.77-.02,57,0,82.79,0,.56-.24,1.1-.66,1.47l-18.4,16.29c-1.26,1.12-3.25,.25-3.27-1.44Zm6.85-6.48l11.07-10.4c.4-.37,.62-.89,.62-1.43,0-7.19,0-58.11,0-78.08,0-.73-.59-1.31-1.31-1.31h-12.32c-.8,0-1.45,.65-1.44,1.46,.22,14.66,.07,34.01,.07,48.34,0,13.16,0,26.32,0,39.98,0,1.72,2.06,2.62,3.32,1.44Z"/>
        <path class="cls-3" d="M1087.88,291.99c-1.49,1.98-3.11,3.89-4.45,5.97-1.2,1.85-2.01,4-4.73,3.96-3.01-.04-4.92-2.14-5.8-4.4-2.41-6.13,.72-11.01,4.69-15.28,3.75-4.03,7.66-8.2,14.12-5.76,2.45,.93,4.09,2.73,3.85,5.4-1.15,12.84-.89,25.94-6.52,38.02-3.16,6.77-13.16,7.92-17.87,2.09-.47-.59-.99-1.11-.33-1.82,.59-.63,1.28-.32,2.01-.17,8.94,1.88,9.49,1.55,12.46-6.97,2.31-6.63,2.48-13.61,2.56-21.04Zm-8.87,.78c2.23-2.83,5.38-5.05,6.99-10.09-4.13,3.33-6.34,6.18-6.99,10.09Z"/>

    <path class="cls-3" d="M850.73,284.08c-3.78,5.45-6.48,10.13-8.26,15.28-.59,1.72-.74,4.27-2.89,3.99-2.38-.31-4.19-2.27-4.24-5.05-.06-3.28-.01-6.56-.01-11.4-2.55,5.3-5.13,9.11-6.11,13.72-.32,1.5,.19,3.7-2.23,3.71-2.18,0-4-1.31-4.51-3.39-1.64-6.64-1.06-13.46-1.15-20.21-.03-2.34,1.34-1.92,2.98-1.17,2.55,1.18,2.59,3.68,3.4,5.96,3.57-1.52,2.21-7.73,6.9-7.39,3.73,.28,5.93,3.18,7.22,6.7,2.39-.86,2.7-3.4,4.24-4.87,1.63-1.55,2.47-4.59,5.48-3.52,2.9,1.03,4.88,3.24,5.23,6.46,.27,2.5,.31,5.03,.54,9.05,1.78-3.78,2.87-6.28,4.12-8.71,3.68-7.18,12.41-8.05,17.61-1.84,1.63,1.95,2.27,4.17,2.13,6.6-.26,4.76-8.27,14.98-12.77,16.32-4.12,1.22-6.4-1.42-8.68-4.18-.79-.96-.85-3.9-3.52-1-1.99,2.15-3.45-.64-4.18-2.41-1.51-3.65-.81-7.59-1.28-12.67Zm11.68,12.47c-.51,3.65,1.29,3.27,3.47,2.12,5.11-2.69,8.06-7.27,10.44-12.27,.5-1.04,1.49-2.3,.05-3.44-1.17-.92-2.32-.51-3.59-.05-6.72,2.42-9.93,6.61-10.37,13.64Z"/>
    <path class="cls-3" d="M1244.55,283.84c1.74-1.58,2.66-2.41,3.56-3.25,4.29-3.97,8.35-3.88,12.88,.03,4.51,3.89,.59,7.22-1.2,9.76-2.99,4.24-7.15,7.66-10.81,11.43-.25,.26-.42,.6-.69,.84-1.63,1.46-4.77-1.84-4.83,.24-.14,4.69-2.08,9.23-1.11,13.97,.22,1.05,.69,2.12,.62,3.15-.13,1.87,1.53,4.82-2.28,4.9-3.01,.07-3.44-2.02-3.37-4.46,.09-2.92,.49-5.92,0-8.75-1.87-10.65,2.5-20.84,2.02-31.37-.06-1.29-1.02-3.46,.78-3.85,1.9-.41,3.17,1.53,3.95,3.15,.44,.91,.27,2.12,.46,4.21Zm11.85-.74c-6,2.62-7.79,7.27-10.62,12.71,5.16-4.09,7.73-7.2,10.62-12.71Z"/>
    <path class="cls-2" d="M1347.4,142.68c-.72,0-1.08-.87-.57-1.38,7.49-7.45,14.1-13.98,20.64-20.58,1.52-1.54,3.3-1.3,5.1-1.3,20.06,0,44.49,.09,64.89-.08,1.38-.01,2.5,1.1,2.49,2.49-.04,4.45-.1,13.61,.02,17.28,.08,2.51-.63,3.62-3.33,3.61-29.22-.06-58.44-.04-89.24-.04Zm48.65-4.15c9.71,0,19.42,0,29.12,0,10.8,0,10.64,0,10.66-10.7,0-3.63-1.09-4.61-4.64-4.57-15.38,.18-29.93-.22-46.14-.2-11.78-.1-12.88-.11-23.82,11.49-1.42,1.5-.36,3.97,1.71,3.97,8.49,0,24.81,0,33.11,0Z"/>
    <path class="cls-3" d="M1378.91,282.77c2.5-3.22,4.24-6.72,8.31-8.01,2.61-.83,4.56-.4,6.4,1.61,1.56,1.71,1.47,2.86-.81,3.5-10.21,2.84-11.95,11.65-14.29,20.07-.46,1.66,1.53,4.77-1.64,4.71-2.46-.05-4.81-2.14-4.81-5.11,0-6.93,.26-13.87,.43-20.8,.02-.73,.15-1.85,.92-1.7,1.18,.23,2.5,.79,3.29,1.65,.94,1.02,1.38,2.49,2.21,4.09Z"/>

    <path class="cls-3" d="M948.95,295.83c-1.46,2.03-2.2,3.03-2.9,4.06-2.41,3.57-4.94,6.43-9.77,3.38-5.06-3.2-7.17-8.36-4.64-12.84,2.43-4.31,5.44-8.22,9.45-11.23,2.25-1.69,4.58-3.18,7.33-.74,.35,.31,.65,1.04,1.66,.39,3.34-2.16,5.8-1.02,5.75,2.94-.09,7.45-1.71,14.83-1.1,22.34,.09,1.12-.25,2.22-1.67,2.37-1.53,.16-2.35-.95-2.93-2.05-1.22-2.32-.61-4.99-1.17-8.6Zm.21-13.67c-6.55,2.59-9.72,7.16-12.53,12.05-.79,1.37-1.63,3.35,.22,4.23,1.62,.77,3.26-.7,4.09-2.09,2.61-4.34,5.97-8.25,8.22-14.19Z"/>
    <path class="cls-3" d="M1505.74,267.69c3.17-3.14,2.37-5.52,2.25-7.7-.08-1.51,.32-2.51,1.94-2.71,1.43-.17,1.89,.88,2.27,1.92,1.03,2.77,.81,5.54-1.13,7.74-1.54,1.74-3.63,3.71-5.33-.1-.04-.09-.31-.18-.38-.13-9.8,6.47-2.46-2.51-3.52-3.91-.09-.12-.06-.38,0-.54,.86-2.27-2.9-6.92,2.17-6.65,3.98,.21,1.65,4.76,2.14,7.36,.19,1.01-.16,2.12-.41,4.72Z"/>
    <path class="cls-3" d="M1431.07,265.6c.93-3.88,2.65-7.46,4.67-10.88,.81-1.38,2.22-1.71,3.79-.89,1.51,.79,1.28,1.95,.88,3.23-1.08,3.45-2.15,6.9-3.16,10.37-.54,1.85-1.5,2.92-3.54,2.2-1.85-.65-3.32-1.63-2.64-4.03Z"/>
    <path class="cls-2" d="M1565.49,119.61c8.59,0,16.07,.03,23.56-.03,1.62-.01,2.81,.38,3.57,1.9,3.4,6.8,6.82,13.57,10.65,21.18-8.64,0-16.46,0-24.27,0-1.48,0-2.31-.82-2.93-2.05-3.34-6.66-6.7-13.31-10.58-21Zm21.67,19.11c10.06-.03,10.01,.69,5.1-8.67-.76-1.45-1.55-2.9-2.24-4.38-.61-1.31-1.59-1.93-3.01-1.93-3.84,0-7.67-.01-11.51,0-1.4,0-2.47,.2-2.22,2.13,5.92,14.56,3.31,12.87,13.88,12.86Z"/>
  </g>
</svg>